<svg xmlns="http://www.w3.org/2000/svg" viewBox="0 0 1200 900" width="1200" height="900" role="img" aria-label="Illustrated silhouette of a coastal archway monument at sunset, representing Maharashtra">
  <defs>
    <linearGradient id="bg" x1="0" y1="0" x2="0" y2="1">
      <stop offset="0%" stop-color="#182a4d" />
      <stop offset="100%" stop-color="#0a1226" />
    </linearGradient>
    <radialGradient id="sun" cx="50%" cy="42%" r="30%">
      <stop offset="0%" stop-color="#f59e0b" stop-opacity="0.9" />
      <stop offset="100%" stop-color="#f59e0b" stop-opacity="0" />
    </radialGradient>
  </defs>
  <rect width="1200" height="900" fill="url(#bg)" />
  <rect width="1200" height="900" fill="url(#sun)" />
  <circle cx="600" cy="360" r="90" fill="#f59e0b" opacity="0.85" />
  <rect y="620" width="1200" height="280" fill="#101d38" />
  <path d="M0 640 L1200 640 L1200 660 L0 660 Z" fill="#223868" opacity="0.6" />
  <g fill="#0a1226">
    <path d="M480 640 L480 420 C 480 340 720 340 720 420 L720 640 Z" />
    <rect x="470" y="620" width="260" height="30" />
  </g>
  <g fill="#182a4d" opacity="0.9">
    <rect x="420" y="560" width="40" height="80" />
    <rect x="740" y="560" width="40" height="80" />
  </g>
  <g opacity="0.5" fill="#5c7fbe">
    <circle cx="150" cy="760" r="4" />
    <circle cx="220" cy="800" r="3" />
    <circle cx="980" cy="770" r="4" />
    <circle cx="1050" cy="810" r="3" />
  </g>
</svg>
